<?xml version="1.0" encoding="UTF-8"?>
<svg id="_레이어_1" data-name="레이어 1" xmlns="http://www.w3.org/2000/svg" viewBox="0 0 32 32">
  <defs>
    <style>
      .cls-1 {
        fill: #040000;
      }

      .cls-2 {
        fill: #f4bf1d;
      }
    </style>
  </defs>
  <circle class="cls-1" cx="16" cy="16" r="16"/>
  <path class="cls-2" d="M22.48,19.39c.64-.09,1.22-.4,1.71-.82,1.47,2.5.4,5.16-1.79,6.77-3.23,2.38-8.37,2.55-11.84.61-2.46-1.37-4.31-4.09-2.97-6.93.05-.1.16-.42.29-.39.04,0,.2.25.62.45.39.19.62.25,1.07.36,1.67,6.52,11.28,6.48,12.91-.05Z"/>
  <path class="cls-2" d="M22.28,19.44c-.64,2.07-2.52,3.67-4.6,4.18-3.32.82-6.93-.93-7.96-4.24,1.67.24,3.36-.43,4.36-1.79.65-.87.87-1.84,1.4-2.66.76-1.2,1.21.6,1.5,1.17.79,1.56,2.1,3.35,4.08,3.35h1.22Z"/>
  <path class="cls-2" d="M25.22,16.62c.22-.88.3-1.81.25-2.71-.01-.2-.07-.92-.14-1.05-.03-.06-.06-.1-.13-.12l-1.48-.67c2.16-.42,4.46.84,5.47,2.75.53,1.01.84,2.18-.64,2.36-1.15.14-2.28-.08-3.32-.55Z"/>
  <path class="cls-2" d="M7.97,12.13l-1.37.67c-.21,1.29-.18,2.62.12,3.88-.84.49-3.65.8-4.25-.03-.64-.88.9-2.75,1.56-3.31.54-.45,1.96-1.22,2.66-1.22h1.28Z"/>
  <path class="cls-2" d="M24.15,5.19s-.05-.13-.12-.12v.62c-.24,2.42-2.62,4.21-5.02,4-.27-.02-.83-.32-1.16-.4-1.35-.35-2.54-.27-3.87.06-.27.07-.59.25-.84.28-2.53.31-5.02-2.02-4.84-4.56l-.63.89c-1.05,1.9-.34,4.43,1.05,5.97.58-.13,1.19-.13,1.77-.27,2.33-.57,3.7-1.3,6.28-1.09,1.99.16,3.8.99,5.79,1.27.32.05.64.14.96.21,1.77-1.81,2.37-4.8.65-6.85Z"/>
  <path class="cls-2" d="M20.15,11.63c-2.19-.72-4.34-.97-6.63-.53-.7.13-1.37.36-2.06.53l2.44.4c.56.07,1.71.66,2.09.65.18,0,1.02-.37,1.29-.45.92-.25,1.84-.44,2.8-.48.1,0,.21,0,.31,0-.05-.05-.15-.09-.25-.12Z"/>
</svg>